# Blender v2.93.5 OBJ File: ''
# www.blender.org
mtllib llanta.mtl
o Cylinder.001
v -0.181126 -0.080762 -0.117940
v -0.186146 -0.127441 -0.018299
v -0.192946 -0.089918 0.085036
v -0.197543 0.009828 0.131534
v -0.197244 0.113367 0.093955
v -0.192225 0.160046 -0.005686
v -0.185424 0.122523 -0.109021
v -0.180827 0.022776 -0.155518
v 0.203925 0.029914 -0.132790
v 0.199328 0.129661 -0.086293
v 0.192528 0.167184 0.017042
v 0.187508 0.120505 0.116683
v 0.187209 0.016966 0.154261
v 0.191806 -0.082780 0.107763
v 0.198606 -0.120303 0.004428
v 0.203626 -0.073624 -0.095213
v -0.178757 0.005519 0.238789
v -0.184917 0.000748 0.344570
v -0.184178 0.256907 0.251600
v -0.178238 0.185368 0.173515
v 0.164088 -0.161529 0.177802
v 0.161316 -0.239815 0.249314
v 0.178140 -0.332651 -0.006342
v 0.175900 -0.226709 -0.001694
v 0.156622 0.191580 0.193295
v 0.150682 0.263119 0.271381
v 0.149942 0.006960 0.364350
v 0.156103 0.011732 0.258569
v -0.150240 -0.151838 -0.194552
v -0.144300 -0.223376 -0.272637
v -0.156720 -0.338863 -0.026123
v -0.158960 -0.232921 -0.021474
v 0.190559 -0.217164 -0.252857
v 0.184620 -0.145625 -0.174771
v -0.170772 -0.167741 0.158022
v -0.173544 -0.246028 0.229533
v -0.149721 0.028011 -0.259825
v -0.143561 0.032782 -0.365607
v 0.191299 0.038995 -0.345827
v 0.185139 0.034223 -0.240045
v 0.165341 0.272663 0.020217
v 0.163101 0.378606 0.024865
v -0.171758 0.372394 0.005085
v -0.169518 0.266451 0.000436
v 0.177154 0.207484 -0.159278
v 0.179925 0.285771 -0.230790
v -0.154934 0.279559 -0.250570
v -0.157706 0.201272 -0.179059
v -0.025279 0.362771 0.373653
v -0.007545 0.527675 0.021652
v -0.236387 0.505884 0.007343
v -0.253508 0.346675 0.347186
v -0.026335 -0.003000 0.506405
v -0.254527 -0.006462 0.475352
v -0.010095 -0.355373 0.342143
v -0.238848 -0.346665 0.316764
v 0.013928 -0.487933 -0.022909
v -0.215655 -0.474646 -0.035679
v 0.016478 0.395116 -0.343400
v 0.032718 0.042742 -0.507661
v -0.197514 0.037700 -0.503688
v -0.213193 0.377903 -0.345101
v 0.031662 -0.323029 -0.374909
v -0.198534 -0.315437 -0.375522
v 0.254128 -0.237536 -0.272695
v 0.240595 -0.363372 -0.004091
v 0.254933 0.041576 -0.373995
v -0.248552 -0.001834 0.372738
v -0.247746 0.277278 0.271439
v 0.222264 -0.262217 0.274474
v 0.219575 -0.338160 0.343844
v 0.242768 -0.466142 -0.008600
v 0.210677 0.285784 0.298518
v 0.204915 0.355180 0.374265
v 0.203896 0.002042 0.502432
v 0.209871 0.006671 0.399818
v -0.204296 -0.246040 -0.299774
v -0.217828 -0.371877 -0.031170
v 0.259889 -0.306933 -0.348443
v -0.236159 -0.270722 0.247394
v -0.203490 0.033071 -0.401074
v 0.260909 0.046205 -0.476609
v 0.224209 0.411619 0.029913
v 0.222036 0.514388 0.034422
v -0.234214 0.403115 0.002833
v 0.242541 0.310465 -0.248650
v 0.245230 0.386407 -0.318021
v -0.215882 0.301960 -0.275730
vt 0.304216 0.304216
vt 0.326672 0.250000
vt 0.304216 0.195784
vt 0.250000 0.173328
vt 0.195784 0.195784
vt 0.173328 0.250000
vt 0.195784 0.304216
vt 0.250000 0.326672
vt 0.750000 0.326672
vt 0.695784 0.304216
vt 0.673327 0.250000
vt 0.695784 0.195784
vt 0.750000 0.173327
vt 0.804216 0.195784
vt 0.826673 0.250000
vt 0.804216 0.304216
vt 0.250000 0.116818
vt 0.250000 0.060309
vt 0.115868 0.115868
vt 0.155826 0.155826
vt 0.844174 0.155826
vt 0.884132 0.115868
vt 0.939691 0.250000
vt 0.883182 0.250000
vt 0.655826 0.155826
vt 0.615868 0.115868
vt 0.750000 0.060309
vt 0.750000 0.116818
vt 0.344174 0.344174
vt 0.384132 0.384132
vt 0.439691 0.250000
vt 0.383182 0.250000
vt 0.884132 0.384132
vt 0.844174 0.344174
vt 0.344174 0.155826
vt 0.384132 0.115868
vt 0.250000 0.383182
vt 0.250000 0.439691
vt 0.750000 0.439691
vt 0.750000 0.383182
vt 0.616818 0.250000
vt 0.560309 0.250000
vt 0.060309 0.250000
vt 0.116818 0.250000
vt 0.655826 0.344174
vt 0.615868 0.384132
vt 0.115868 0.384132
vt 0.155826 0.344174
vt 0.375000 0.750000
vt 0.250000 0.750000
vt 0.250000 1.000000
vt 0.375000 1.000000
vt 0.500000 0.750000
vt 0.500000 1.000000
vt 0.625000 0.750000
vt 0.625000 1.000000
vt 0.750000 0.750000
vt 0.750000 1.000000
vt 0.125000 0.750000
vt 0.000000 0.750000
vt 0.000000 1.000000
vt 0.125000 1.000000
vt 0.875000 0.750000
vt 0.875000 1.000000
vt 0.884132 0.384132
vt 0.939691 0.250000
vt 1.000000 0.750000
vt 1.000000 1.000000
vt 0.750000 0.439691
vt 0.250000 0.060309
vt 0.250000 0.010000
vt 0.080294 0.080294
vt 0.115868 0.115868
vt 0.884132 0.115868
vt 0.919706 0.080294
vt 0.990000 0.250000
vt 0.615868 0.115868
vt 0.580294 0.080294
vt 0.750000 0.010000
vt 0.750000 0.060309
vt 0.384132 0.384132
vt 0.419706 0.419706
vt 0.490000 0.250000
vt 0.439691 0.250000
vt 0.919706 0.419706
vt 0.384132 0.115868
vt 0.419706 0.080294
vt 0.250000 0.439691
vt 0.250000 0.490000
vt 0.750000 0.490000
vt 0.560309 0.250000
vt 0.510000 0.250000
vt 0.010000 0.250000
vt 0.060309 0.250000
vt 0.615868 0.384132
vt 0.580294 0.419706
vt 0.080294 0.419706
vt 0.115868 0.384132
vt 0.250000 0.500000
vt 0.125000 0.500000
vt 1.000000 0.500000
vt 0.875000 0.500000
vt 0.750000 0.500000
vt 0.000000 0.500000
vt 0.625000 0.500000
vt 0.500000 0.500000
vt 0.375000 0.500000
vn -0.9981 -0.0185 -0.0590
vn 0.9981 0.0185 0.0590
vn -0.9559 0.0868 -0.2807
vn -0.9665 0.2144 -0.1414
vn -0.9774 0.2059 0.0472
vn -0.9678 -0.2503 0.0272
vn -0.9519 -0.1021 -0.2890
vn -0.9784 -0.1227 0.1664
vn -0.9568 -0.2417 -0.1615
vn -0.9824 0.0663 0.1747
vn 0.9784 0.1227 -0.1664
vn 0.9678 0.2503 -0.0272
vn 0.9568 0.2417 0.1615
vn 0.9824 -0.0663 -0.1747
vn 0.9559 -0.0868 0.2807
vn 0.9774 -0.2059 -0.0472
vn 0.9519 0.1021 0.2890
vn 0.9665 -0.2144 0.1414
vn -0.1120 0.9020 0.4169
vn -0.1319 0.3385 0.9317
vn -0.1158 -0.4240 0.8982
vn -0.0730 -0.9390 0.3362
vn -0.0249 0.4214 -0.9065
vn -0.0287 -0.9046 -0.4252
vn 0.3914 0.8256 0.4065
vn -0.0087 -0.3411 -0.9400
vn -0.0676 0.9364 -0.3445
vn 0.3734 0.3155 0.8724
vn -0.3880 0.3747 -0.8421
vn 0.4668 -0.8096 -0.3558
vn -0.3734 -0.3155 -0.8724
vn -0.3914 -0.8256 -0.4065
vn 0.4703 0.3906 -0.7914
vn 0.4267 -0.8407 0.3334
vn 0.4316 0.8566 -0.2827
vn -0.4316 -0.8567 0.2827
vn 0.3880 -0.3747 0.8421
vn 0.4848 -0.2996 -0.8217
vn -0.4702 -0.3906 0.7914
vn -0.4848 0.2996 0.8217
vn -0.4668 0.8096 0.3558
vn -0.4267 0.8407 -0.3334
vn 0.0730 0.9390 -0.3362
vn 0.1319 -0.3385 -0.9317
vn 0.1120 -0.9020 -0.4169
vn 0.1158 0.4240 -0.8982
vn 0.0676 -0.9364 0.3445
vn 0.0249 -0.4214 0.9065
vn 0.0087 0.3411 0.9400
vn 0.0287 0.9046 0.4252
usemtl Material.002
s 1
f 1/1/1 2/2/1 3/3/1 4/4/1 5/5/1 6/6/1 7/7/1 8/8/1
f 9/9/2 10/10/2 11/11/2 12/12/2 13/13/2 14/14/2 15/15/2 16/16/2
f 17/17/1 18/18/1 19/19/1 20/20/1
f 21/21/2 22/22/2 23/23/2 24/24/2
f 25/25/2 26/26/2 27/27/2 28/28/2
f 29/29/1 30/30/1 31/31/1 32/32/1
f 24/24/2 23/23/2 33/33/2 34/34/2
f 35/35/1 36/36/1 18/18/1 17/17/1
f 28/28/2 27/27/2 22/22/2 21/21/2
f 37/37/1 38/38/1 30/30/1 29/29/1
f 32/32/1 31/31/1 36/36/1 35/35/1
f 34/34/2 33/33/2 39/39/2 40/40/2
f 41/41/2 42/42/2 26/26/2 25/25/2
f 20/20/1 19/19/1 43/43/1 44/44/1
f 45/45/2 46/46/2 42/42/2 41/41/2
f 44/44/1 43/43/1 47/47/1 48/48/1
f 40/40/2 39/39/2 46/46/2 45/45/2
f 48/48/1 47/47/1 38/38/1 37/37/1
f 7/7/3 48/48/3 37/37/3 8/8/3
f 6/6/4 44/44/4 48/48/4 7/7/4
f 5/5/5 20/20/5 44/44/5 6/6/5
f 2/2/6 32/32/6 35/35/6 3/3/6
f 8/8/7 37/37/7 29/29/7 1/1/7
f 3/3/8 35/35/8 17/17/8 4/4/8
f 1/1/9 29/29/9 32/32/9 2/2/9
f 4/4/10 17/17/10 20/20/10 5/5/10
f 9/9/11 40/40/11 45/45/11 10/10/11
f 10/10/12 45/45/12 41/41/12 11/11/12
f 11/11/13 41/41/13 25/25/13 12/12/13
f 16/16/14 34/34/14 40/40/14 9/9/14
f 13/13/15 28/28/15 21/21/15 14/14/15
f 15/15/16 24/24/16 34/34/16 16/16/16
f 12/12/17 25/25/17 28/28/17 13/13/17
f 14/14/18 21/21/18 24/24/18 15/15/18
usemtl Material.005
f 49/49/19 50/50/19 51/51/19 52/52/19
f 53/53/20 49/49/20 52/52/20 54/54/20
f 55/55/21 53/53/21 54/54/21 56/56/21
f 57/57/22 55/55/22 56/56/22 58/58/22
f 59/59/23 60/60/23 61/61/23 62/62/23
f 63/63/24 57/57/24 58/58/24 64/64/24
f 65/65/25 33/33/25 23/23/25 66/66/25
f 60/67/26 63/63/26 64/64/26 61/68/26
f 50/50/27 59/59/27 62/62/27 51/51/27
f 67/69/28 39/39/28 33/33/28 65/65/28
f 68/70/1 54/71/1 52/72/1 69/73/1
f 70/74/2 71/75/2 72/76/2 66/66/2
f 73/77/2 74/78/2 75/79/2 76/80/2
f 77/81/1 64/82/1 58/83/1 78/84/1
f 66/66/2 72/76/2 79/85/2 65/65/2
f 80/86/1 56/87/1 54/71/1 68/70/1
f 76/80/2 75/79/2 71/75/2 70/74/2
f 81/88/1 61/89/1 64/82/1 77/81/1
f 78/84/1 58/83/1 56/87/1 80/86/1
f 65/65/2 79/85/2 82/90/2 67/69/2
f 83/91/2 84/92/2 74/78/2 73/77/2
f 69/73/1 52/72/1 51/93/1 85/94/1
f 86/95/2 87/96/2 84/92/2 83/91/2
f 85/94/1 51/93/1 62/97/1 88/98/1
f 67/69/2 82/90/2 87/96/2 86/95/2
f 88/98/1 62/97/1 61/89/1 81/88/1
f 68/70/29 18/18/29 36/36/29 80/86/29
f 73/77/30 26/26/30 42/42/30 83/91/30
f 69/73/31 19/19/31 18/18/31 68/70/31
f 85/94/32 43/43/32 19/19/32 69/73/32
f 70/74/33 22/22/33 27/27/33 76/80/33
f 83/91/34 42/42/34 46/46/34 86/95/34
f 66/66/35 23/23/35 22/22/35 70/74/35
f 88/98/36 47/47/36 43/43/36 85/94/36
f 86/95/37 46/46/37 39/39/37 67/69/37
f 76/80/38 27/27/38 26/26/38 73/77/38
f 81/88/39 38/38/39 47/47/39 88/98/39
f 77/81/40 30/30/40 38/38/40 81/88/40
f 78/84/41 31/31/41 30/30/41 77/81/41
f 80/86/42 36/36/42 31/31/42 78/84/42
f 84/99/43 87/100/43 59/59/43 50/50/43
f 82/101/44 79/102/44 63/63/44 60/67/44
f 79/102/45 72/103/45 57/57/45 63/63/45
f 87/100/46 82/104/46 60/60/46 59/59/46
f 72/103/47 71/105/47 55/55/47 57/57/47
f 71/105/48 75/106/48 53/53/48 55/55/48
f 75/106/49 74/107/49 49/49/49 53/53/49
f 74/107/50 84/99/50 50/50/50 49/49/50
